# xmcd
# Copyright (C) 1995-1998 Ti Kan
#
# Track frame offsets:
#       150
#       12367
#       32109
#       53015
#       77747
#       94155
#       107696
#       122403
#       139445
#       153995
#       166169
#       182373
#       196095
#       212746
#       232619
#       252943
#       267815
#       282040
#       293246
#       309534
#       329539
#       341562
#
# Disc length: 4812 seconds
#
# Revision: 0
# Processed by: cddbd v1.5.2PL0 Copyright (c) Steve Scherf et al.
# Submitted via: CD-Transfer v1.0
#
DISCID=2912ca16
DTITLE=Various Ska 2 - 
DYEAR=1900
DGENRE=
TTITLE0=Hard Up
TTITLE1=Gpc's
TTITLE2=Skinhead
TTITLE3=Bumble Bee Tuna Song, The
TTITLE4=Rudie Can't Fail
TTITLE5=Dr. Kervorkian
TTITLE6=Someone To Cling To
TTITLE7=Eagon Train Ska
TTITLE8=Yes, Yes, Yes
TTITLE9=Road Runner
TTITLE10=Do The Ska
TTITLE11=Skank 'n' Roll
TTITLE12=Ruder Than Roots
TTITLE13=More Human Than Human
TTITLE14=Rock And Roll All Night
TTITLE15=In The Grass
TTITLE16=Ska Music
TTITLE17=Shooting
TTITLE18=Come On In Sin
TTITLE19=Rude Girl
TTITLE20=Souvenir
TTITLE21=I Shall Be Released
EXTD=
EXTT0=
EXTT1=
EXTT2=
EXTT3=
EXTT4=
EXTT5=
EXTT6=
EXTT7=
EXTT8=
EXTT9=
EXTT10=
EXTT11=
EXTT12=
EXTT13=
EXTT14=
EXTT15=
EXTT16=
EXTT17=
EXTT18=
EXTT19=
EXTT20=
EXTT21=
PLAYORDER=
